<svg xmlns="http://www.w3.org/2000/svg" viewBox="0 0 64 64" fill="none">
  <defs>
    <linearGradient id="bgGrad" x1="0" y1="0" x2="64" y2="64" gradientUnits="userSpaceOnUse">
      <stop offset="0%" stop-color="#0f172a"/>
      <stop offset="100%" stop-color="#1e293b"/>
    </linearGradient>
    <linearGradient id="docGrad" x1="12" y1="8" x2="52" y2="56" gradientUnits="userSpaceOnUse">
      <stop offset="0%" stop-color="#10b981"/>
      <stop offset="100%" stop-color="#059669"/>
    </linearGradient>
    <linearGradient id="csvGrad" x1="24" y1="20" x2="54" y2="50" gradientUnits="userSpaceOnUse">
      <stop offset="0%" stop-color="#3b82f6"/>
      <stop offset="100%" stop-color="#1d4ed8"/>
    </linearGradient>
  </defs>

  <rect x="4" y="4" width="56" height="56" rx="14" fill="url(#bgGrad)"/>
  <rect x="4" y="4" width="56" height="56" rx="14" stroke="#334155" stroke-width="2"/>

  <path d="M16 12C16 9.79086 17.7909 8 20 8H36L48 20V52C48 54.2091 46.2091 56 44 56H20C17.7909 56 16 54.2091 16 52V12Z" fill="url(#docGrad)"/>
  <path d="M36 8V20H48L36 8Z" fill="#34d399"/>

  <rect x="22" y="26" width="20" height="4" rx="2" fill="#ffffff" fill-opacity="0.9"/>
  <rect x="22" y="34" width="14" height="4" rx="2" fill="#ffffff" fill-opacity="0.7"/>
  <rect x="22" y="42" width="18" height="4" rx="2" fill="#ffffff" fill-opacity="0.7"/>

  <circle cx="44" cy="42" r="10" fill="url(#csvGrad)"/>
  <path d="M41 42H47M47 42L44 39M47 42L44 45" stroke="#ffffff" stroke-width="2" stroke-linecap="round" stroke-linejoin="round"/>
</svg>
